<svg width="142" height="24" viewBox="0 0 142 24" fill="none" xmlns="http://www.w3.org/2000/svg">
<g id="Clip path group">
<mask id="mask0_576_141" style="mask-type:luminance" maskUnits="userSpaceOnUse" x="0" y="0" width="142" height="24">
<g id="clippath">
<path id="Vector" d="M141.53 0H0V24H141.53V0Z" fill="white"/>
</g>
</mask>
<g mask="url(#mask0_576_141)">
<g id="Group">
<path id="Vector_2" d="M36.9304 21.4518C35.5867 21.4518 34.4993 20.3629 34.4993 19.0207V2.30664H38.8V21.4503H36.9304V21.4518Z" fill="#432424"/>
<path id="Vector_3" d="M42.3378 21.4518V7.07996H45.6696V13.2429H45.4341C45.4341 11.7733 45.6222 10.5511 45.997 9.57033C46.3733 8.59255 46.9452 7.85774 47.7141 7.36737C48.483 6.87848 49.4178 6.63403 50.52 6.63403H50.7037C52.3822 6.63403 53.6622 7.1807 54.5452 8.27403C55.4281 9.36737 55.8696 11.0237 55.8696 13.2429V21.4503H51.6741V13.0059C51.6741 12.2355 51.4474 11.6074 50.9926 11.117C50.5378 10.6281 49.9259 10.3822 49.157 10.3822C48.3881 10.3822 47.7363 10.6311 47.2548 11.1303C46.7748 11.6281 46.5333 12.28 46.5333 13.0844V21.4503H42.3378V21.4518Z" fill="#432424"/>
<path id="Vector_4" d="M58.9393 21.4518V7.07996H62.2711V13.2429H62.0356C62.0356 11.7733 62.2237 10.5511 62.5985 9.57033C62.9748 8.59255 63.5467 7.85774 64.3156 7.36737C65.0845 6.87848 66.0193 6.63403 67.1215 6.63403H67.3052C68.9837 6.63403 70.2637 7.1807 71.1467 8.27403C72.0296 9.36737 72.4711 11.0237 72.4711 13.2429V21.4503H68.2756V13.0059C68.2756 12.2355 68.0489 11.6074 67.5941 11.117C67.1393 10.6281 66.5274 10.3822 65.7585 10.3822C64.9896 10.3822 64.3378 10.6311 63.8563 11.1303C63.3763 11.6281 63.1348 12.28 63.1348 13.0844V21.4503H58.9393V21.4518Z" fill="#432424"/>
<path id="Vector_5" d="M82.5956 21.9497C81.3364 21.9497 80.2178 21.7526 79.2386 21.36C78.2593 20.966 77.4326 20.4297 76.7601 19.7467C76.0875 19.0652 75.5763 18.2815 75.2267 17.4C74.8771 16.5171 74.7023 15.5867 74.7023 14.6074V14.0045C74.7023 13.0089 74.8815 12.0608 75.24 11.16C75.5971 10.2593 76.1215 9.46818 76.8134 8.7867C77.5038 8.10522 78.3378 7.56744 79.3171 7.17337C80.2964 6.78078 81.3882 6.58374 82.5956 6.58374C83.803 6.58374 84.9423 6.78078 85.9126 7.17337C86.883 7.56744 87.7097 8.10374 88.3912 8.7867C89.0727 9.46818 89.5986 10.2593 89.966 11.16C90.3319 12.0608 90.5156 13.0089 90.5156 14.0045V14.6074C90.5156 15.5867 90.3393 16.5171 89.9912 17.4C89.6415 18.283 89.1304 19.0652 88.4578 19.7467C87.7852 20.4282 86.9586 20.966 85.9793 21.36C85.0001 21.7526 83.8712 21.9497 82.5956 21.9497ZM82.5956 18.4089C83.4178 18.4089 84.0993 18.2341 84.6415 17.8845C85.1838 17.5349 85.5986 17.0445 85.8875 16.4149C86.1749 15.7867 86.3201 15.0874 86.3201 14.3171C86.3201 13.4949 86.1704 12.7749 85.8741 12.1526C85.5764 11.5319 85.1526 11.0386 84.6015 10.6711C84.0504 10.3037 83.3823 10.12 82.5956 10.12C81.8089 10.12 81.1615 10.3037 80.603 10.6711C80.043 11.0386 79.6208 11.5319 79.3304 12.1526C79.043 12.7734 78.8978 13.4949 78.8978 14.3171C78.8978 15.086 79.0371 15.7852 79.3171 16.4149C79.5971 17.0445 80.0164 17.5349 80.5764 17.8845C81.1349 18.2341 81.8089 18.4089 82.5956 18.4089Z" fill="#432424"/>
<path id="Vector_6" d="M97.1511 21.4518H95.3867C94.043 21.4518 92.9556 20.3629 92.9556 19.0207V2.30664H97.1526V21.4503L97.1511 21.4518ZM103.077 21.4518L98.5408 14.7378H96.5215L102.369 7.07997H106.775L101.268 14.2118L101.32 12.1674L107.797 21.4518H103.077Z" fill="#432424"/>
<path id="Vector_7" d="M111.741 5.66368C110.953 5.66368 110.373 5.45924 109.997 5.04887C109.621 4.6385 109.433 4.1185 109.433 3.48739C109.433 2.85628 109.621 2.31257 109.997 1.90072C110.373 1.49035 110.954 1.28442 111.741 1.28442C112.527 1.28442 113.108 1.49035 113.484 1.90072C113.859 2.31109 114.049 2.83998 114.049 3.48739C114.049 4.13479 113.859 4.63702 113.484 5.04887C113.108 5.45924 112.527 5.66368 111.741 5.66368ZM109.643 21.4518V7.07998H113.839V19.0192C113.839 20.3615 112.75 21.4503 111.407 21.4503H109.643V21.4518Z" fill="#432424"/>
<path id="Vector_8" d="M125.806 10.1496V7.08143H121.61V3.19995H117.704V7.08143H115.526V10.1496H117.704V15.84C117.704 17.2918 117.908 18.4414 118.32 19.2888C118.732 20.1362 119.382 20.7407 120.274 21.0977C121.166 21.4562 122.338 21.6355 123.788 21.6355H125.807V18.0948H123.683C123.018 18.0948 122.508 17.9155 122.148 17.557C121.79 17.1985 121.61 16.6785 121.61 15.9955V10.1481H125.806V10.1496Z" fill="#432424"/>
<path id="Vector_9" d="M134.529 21.9497C133.304 21.9497 132.225 21.7393 131.29 21.32C130.354 20.9008 129.576 20.3378 128.956 19.6297C128.335 18.9215 127.862 18.126 127.539 17.243C127.215 16.3615 127.053 15.4549 127.053 14.5289V14.0045C127.053 13.043 127.215 12.12 127.539 11.2386C127.862 10.3556 128.33 9.56448 128.942 8.86522C129.554 8.16596 130.319 7.61041 131.237 7.20004C132.156 6.78967 133.199 6.58374 134.37 6.58374C135.908 6.58374 137.207 6.92893 138.264 7.6193C139.323 8.30967 140.13 9.21041 140.69 10.32C141.249 11.4297 141.529 12.6415 141.529 13.9526V15.3674H128.81V12.9808H138.985L137.622 14.083C137.622 13.2267 137.499 12.4919 137.255 11.88C137.01 11.2682 136.647 10.8 136.167 10.4771C135.686 10.1541 135.087 9.99115 134.37 9.99115C133.653 9.99115 133.015 10.1571 132.508 10.4904C132.001 10.8223 131.616 11.3067 131.354 11.9452C131.092 12.5837 130.96 13.366 130.96 14.2919C130.96 15.1482 131.083 15.8963 131.327 16.5334C131.572 17.1734 131.957 17.6652 132.481 18.0163C133.006 18.366 133.689 18.5408 134.527 18.5408C135.296 18.5408 135.926 18.3926 136.415 18.0948C136.905 17.7971 137.237 17.4311 137.412 16.9926H141.267C141.056 17.9541 140.646 18.8104 140.034 19.563C139.422 20.3156 138.652 20.9008 137.726 21.32C136.799 21.7408 135.733 21.9497 134.527 21.9497" fill="#432424"/>
<path id="Vector_10" d="M3.6074 21.4533H10.1941C10.1941 17.2311 6.77185 13.8088 2.54962 13.8088V20.3955C2.54962 20.9807 3.0237 21.4533 3.6074 21.4533Z" fill="#FB3C2E"/>
<path id="Vector_11" d="M1.05926 2.31105H10.1941C10.1941 7.94068 5.62963 12.5036 0 12.5036V3.36883C0 2.78364 0.474074 2.30957 1.05926 2.30957" fill="#FB3C2E"/>
<path id="Vector_12" d="M20.6311 24H11.4963C11.4963 18.3703 16.0592 13.8074 21.6889 13.8074V22.9422C21.6889 23.5274 21.2148 24 20.6296 24" fill="#FB3C2E"/>
<path id="Vector_13" d="M24.1319 1.05926V12.7407H24.1289C17.0934 12.7407 11.3896 7.03704 11.3896 0H23.0726C23.6578 0 24.1319 0.474074 24.1319 1.05926Z" fill="#FB3C2E"/>
</g>
</g>
</g>
</svg>
