<svg xmlns="http://www.w3.org/2000/svg" width="165" height="56" viewBox="0 0 165 56" fill="none"><path d="M18.4342 55.9987H0L26.1797 0.435913H44.6227L18.4342 55.9987Z" fill="#FB9117"></path><path d="M65.392 5.9643C68.67 5.9643 71.243 8.58025 71.243 12.696C71.243 16.8118 68.6523 19.48 65.392 19.48C64.5911 19.5185 63.7936 19.3527 63.0761 18.9984C62.3586 18.6442 61.7451 18.1134 61.2945 17.457V19.2882H57.2323V1.84854H61.2945V7.95242C61.7504 7.30368 62.3659 6.78066 63.0829 6.43279C63.7998 6.08492 64.5945 5.92368 65.392 5.9643ZM64.176 9.45224C62.6515 9.45224 61.2769 10.6032 61.2769 12.696C61.2769 14.7888 62.6515 15.9485 64.176 15.9485C65.7004 15.9485 67.1015 14.7713 67.1015 12.6698C67.1394 12.2663 67.092 11.8594 66.9624 11.475C66.8328 11.0906 66.6238 10.737 66.3486 10.4369C66.0735 10.1367 65.7382 9.8965 65.3642 9.73149C64.9901 9.56648 64.5855 9.48028 64.176 9.47839V9.45224Z" fill="#222222"></path><path d="M86.4873 19.2882H82.4251V17.5006C81.9616 18.1182 81.3542 18.6159 80.6547 18.9514C79.9551 19.2869 79.184 19.4503 78.407 19.4277C75.3317 19.4277 73.2697 17.335 73.2697 13.8296V6.15613H77.3143V13.2889C77.3143 15.0329 78.3365 16.0619 79.8521 16.0619C81.3677 16.0619 82.4251 15.0765 82.4251 13.2889V6.15613H86.4873V19.2882Z" fill="#222222"></path><path d="M94.8232 19.48C91.2985 19.48 88.8929 17.5268 88.7079 14.9806H92.726C92.8023 15.4473 93.0572 15.8671 93.4378 16.1529C93.8184 16.4386 94.2956 16.5684 94.7704 16.5153C95.819 16.5153 96.3653 16.0444 96.3653 15.4515C96.3653 13.3325 89.1397 14.8672 89.1397 10.0365C89.1397 7.80418 91.0606 5.96429 94.5325 5.96429C98.0043 5.96429 99.8195 7.84778 100.128 10.4376H96.3653C96.2995 9.98825 96.0593 9.58203 95.6957 9.30522C95.332 9.02841 94.8736 8.90283 94.4179 8.95519C93.4662 8.95519 92.9375 9.33015 92.9375 9.96669C92.9375 12.0682 100.128 10.5858 100.198 15.4776C100.172 17.7622 98.1541 19.48 94.8232 19.48Z" fill="#222222"></path><path d="M102.313 2.6246C102.267 2.14365 102.369 1.66012 102.605 1.23736C102.841 0.814604 103.201 0.472336 103.637 0.255388C104.074 0.0384405 104.566 -0.0430686 105.05 0.0215458C105.534 0.0861603 105.986 0.293887 106.349 0.617502C106.711 0.941116 106.967 1.36553 107.081 1.83515C107.196 2.30476 107.164 2.79767 106.991 3.24931C106.818 3.70095 106.511 4.09025 106.11 4.36621C105.709 4.64216 105.233 4.79191 104.745 4.79583C104.44 4.81962 104.132 4.78152 103.842 4.68387C103.552 4.58622 103.285 4.43107 103.057 4.22788C102.83 4.02469 102.646 3.77772 102.518 3.50206C102.39 3.2264 102.321 2.92784 102.313 2.6246ZM102.692 6.11253H106.763V19.2446H102.692V6.11253Z" fill="#222222"></path><path d="M118.871 12.1554C118.871 10.3678 117.875 9.38248 116.324 9.38248C114.773 9.38248 113.786 10.3678 113.786 12.1554V19.2882H109.715V6.15614H113.786V7.9001C114.255 7.29163 114.865 6.80315 115.564 6.47549C116.263 6.14782 117.031 5.99048 117.804 6.01662C120.871 6.01662 122.915 8.08322 122.915 11.6148V19.2882H118.871V12.1554Z" fill="#222222"></path><path d="M131.648 19.48C127.753 19.48 124.942 16.8641 124.942 12.7222C124.942 8.58025 127.7 5.9643 131.648 5.9643C132.53 5.91362 133.413 6.04829 134.239 6.35946C135.065 6.67063 135.816 7.15126 136.441 7.76977C137.066 8.38827 137.551 9.13065 137.866 9.94812C138.18 10.7656 138.316 11.6397 138.265 12.5129C138.263 12.9062 138.239 13.2992 138.195 13.6901H128.986C128.974 14.022 129.031 14.3529 129.153 14.6624C129.275 14.9718 129.46 15.2533 129.696 15.4894C129.932 15.7255 130.214 15.9112 130.526 16.0352C130.837 16.1591 131.171 16.2187 131.507 16.2101C131.948 16.2381 132.388 16.131 132.767 15.9033C133.145 15.6756 133.443 15.3382 133.621 14.937H137.957C137.588 16.2937 136.761 17.4844 135.613 18.311C134.465 19.1376 133.065 19.5502 131.648 19.48ZM129.004 11.4491H134.088C134.088 11.1344 134.022 10.8232 133.894 10.5352C133.766 10.2473 133.579 9.98887 133.344 9.77644C133.11 9.56401 132.833 9.40222 132.532 9.30137C132.23 9.20051 131.911 9.1628 131.595 9.19064C130.955 9.17234 130.332 9.39553 129.853 9.81495C129.373 10.2344 129.073 10.8186 129.013 11.4491H129.004Z" fill="#222222"></path><path d="M145.808 19.48C142.283 19.48 139.886 17.5268 139.693 14.9806H143.711C143.787 15.4473 144.042 15.8671 144.423 16.1529C144.803 16.4386 145.28 16.5684 145.755 16.5153C146.804 16.5153 147.35 16.0444 147.35 15.4515C147.35 13.3325 140.124 14.8672 140.124 10.0365C140.124 7.80418 142.045 5.96429 145.517 5.96429C148.989 5.96429 150.848 7.84778 151.113 10.4376H147.35C147.284 9.98825 147.044 9.58203 146.68 9.30522C146.317 9.02841 145.858 8.90283 145.403 8.95519C144.451 8.95519 143.922 9.33015 143.922 9.96669C143.922 12.0682 151.113 10.5858 151.183 15.4776C151.183 17.7622 149.139 19.48 145.808 19.48Z" fill="#222222"></path><path d="M159.078 19.48C155.554 19.48 153.157 17.5268 152.972 14.9806H156.99C157.066 15.4473 157.321 15.8671 157.702 16.1529C158.082 16.4386 158.56 16.5684 159.034 16.5153C160.083 16.5153 160.629 16.0444 160.629 15.4515C160.629 13.3325 153.395 14.8672 153.395 10.0365C153.395 7.80418 155.325 5.96429 158.796 5.96429C162.268 5.96429 164.128 7.84778 164.383 10.4376H160.629C160.564 9.98656 160.322 9.57892 159.956 9.30188C159.591 9.02484 159.13 8.9004 158.673 8.95519C157.721 8.95519 157.202 9.33015 157.202 9.96669C157.202 12.0682 164.383 10.5858 164.454 15.4776C164.498 17.7622 162.409 19.48 159.078 19.48Z" fill="#222222"></path><path d="M49.1607 26.8919C49.9653 26.8484 50.7672 27.0148 51.4863 27.3744C52.2054 27.7341 52.8164 28.2743 53.2582 28.9411V27.0837H57.3204V40.1635C57.3204 43.6514 55.2761 46.6598 50.6852 46.6598C46.7375 46.6598 44.1733 44.6804 43.812 41.5499H47.8302C48.0945 42.5353 49.0903 43.1718 50.4737 43.1718C51.8572 43.1718 53.2318 42.3696 53.2318 40.1635V38.2974C52.7868 38.9629 52.176 39.5035 51.4582 39.867C50.7404 40.2306 49.94 40.4048 49.1343 40.3728C45.8828 40.3728 43.2833 37.7568 43.2833 33.5975C43.2833 29.4381 45.9092 26.8919 49.1607 26.8919ZM50.3503 30.3798C48.8347 30.3798 47.4513 31.5047 47.4513 33.6062C47.4513 35.7077 48.8347 36.8761 50.3503 36.8761C51.866 36.8761 53.2582 35.7164 53.2582 33.6236C53.2582 31.5309 51.9012 30.406 50.3503 30.406V30.3798Z" fill="#222222"></path><path d="M66.1762 40.4076C62.2726 40.4076 59.4705 37.7917 59.4705 33.6498C59.4705 29.5078 62.2285 26.8919 66.1762 26.8919C67.0583 26.8411 67.9412 26.9757 68.7669 27.287C69.5925 27.5982 70.3422 28.079 70.9666 28.6977C71.5909 29.3163 72.0758 30.0588 72.3892 30.8763C72.7026 31.6938 72.8375 32.5677 72.785 33.4405C72.7871 33.834 72.7635 34.2272 72.7145 34.6177H63.515C63.5029 34.9496 63.5596 35.2805 63.6816 35.59C63.8036 35.8994 63.9884 36.1808 64.2245 36.4169C64.4606 36.653 64.743 36.8388 65.0545 36.9627C65.3659 37.0867 65.6997 37.1463 66.0352 37.1377C66.4769 37.1645 66.9163 37.0568 67.2943 36.8293C67.6724 36.6017 67.971 36.265 68.15 35.8646H72.4766C72.1155 37.2239 71.2915 38.4182 70.1436 39.2459C68.9957 40.0736 67.5944 40.4839 66.1762 40.4076ZM63.5327 32.3767H68.6259C68.6247 32.0616 68.5574 31.7502 68.4283 31.4623C68.2991 31.1743 68.111 30.916 67.8757 30.7037C67.6405 30.4914 67.3633 30.3297 67.0616 30.2289C66.76 30.1282 66.4405 30.0905 66.1233 30.1182C65.4821 30.0977 64.8572 30.3199 64.3758 30.7395C63.8944 31.1591 63.5929 31.7446 63.5327 32.3767Z" fill="#222222"></path><path d="M84.0905 33.083C84.0905 31.339 83.086 30.3101 81.5439 30.3101C80.0019 30.3101 78.9974 31.2954 78.9974 33.083V40.2158H74.9351V27.0837H79.0238V28.8277C79.4945 28.2208 80.1044 27.7335 80.8031 27.406C81.5018 27.0785 82.2692 26.9202 83.0419 26.9442C86.1172 26.9442 88.1616 29.0108 88.1616 32.5423V40.2158H84.117L84.0905 33.083Z" fill="#222222"></path><path d="M96.8676 40.4076C92.964 40.4076 90.1619 37.7917 90.1619 33.6498C90.1619 29.5078 92.9199 26.8919 96.8676 26.8919C97.7496 26.8411 98.6326 26.9757 99.4582 27.287C100.284 27.5982 101.034 28.079 101.658 28.6977C102.282 29.3163 102.767 30.0588 103.081 30.8763C103.394 31.6938 103.529 32.5677 103.476 33.4405C103.478 33.834 103.455 34.2272 103.406 34.6177H94.2065C94.1943 34.9496 94.251 35.2805 94.373 35.59C94.495 35.8994 94.6798 36.1808 94.9159 36.4169C95.152 36.653 95.4344 36.8388 95.7458 36.9627C96.0573 37.0867 96.391 37.1463 96.7266 37.1377C97.1683 37.1645 97.6077 37.0568 97.9857 36.8293C98.3638 36.6017 98.6624 36.265 98.8414 35.8646H103.168C102.807 37.2239 101.983 38.4182 100.835 39.2459C99.6871 40.0736 98.2858 40.4839 96.8676 40.4076ZM94.2241 32.3767H99.2908C99.2896 32.0616 99.2223 31.7502 99.0932 31.4623C98.9641 31.1743 98.776 30.916 98.5407 30.7037C98.3055 30.4914 98.0282 30.3297 97.7266 30.2289C97.4249 30.1282 97.1054 30.0905 96.7883 30.1182C96.1516 30.1044 95.5332 30.3296 95.0575 30.7486C94.5818 31.1676 94.284 31.7493 94.2241 32.3767Z" fill="#222222"></path><path d="M109.689 40.2158H105.626V27.0837H109.689V29.2724C110.128 28.5674 110.741 27.9841 111.47 27.577C112.198 27.1698 113.02 26.9521 113.857 26.9442V31.1995H112.738C110.808 31.1995 109.689 31.8622 109.689 34.1206V40.2158Z" fill="#222222"></path><path d="M120.844 26.8919C121.648 26.8519 122.449 27.0199 123.167 27.3792C123.886 27.7385 124.497 28.2768 124.942 28.941V27.0837H129.004V40.2158H124.942V38.3585C124.491 39.0204 123.876 39.5566 123.155 39.9155C122.434 40.2743 121.633 40.4438 120.827 40.4076C117.593 40.4076 114.993 37.7917 114.993 33.6323C114.993 29.473 117.593 26.8919 120.844 26.8919ZM122.034 30.3798C120.518 30.3798 119.135 31.5047 119.135 33.6062C119.135 35.7076 120.518 36.8761 122.034 36.8761C123.55 36.8761 124.942 35.7164 124.942 33.6236C124.942 31.5308 123.585 30.406 122.034 30.406V30.3798Z" fill="#222222"></path><path d="M132.599 30.4234H131.013V27.0837H132.626V23.9184H136.697V27.1186H139.34V30.4583H136.697V35.6902C136.697 36.4663 137.031 36.7976 137.93 36.7976H139.384V40.2071H137.313C134.555 40.2071 132.626 39.0561 132.626 35.6466L132.599 30.4234Z" fill="#222222"></path><path d="M147.659 40.4076C146.313 40.3853 145.004 39.97 143.896 39.214C142.788 38.458 141.931 37.3949 141.432 36.1583C140.932 34.9216 140.813 33.5666 141.089 32.2632C141.366 30.9599 142.025 29.7664 142.985 28.8326C143.944 27.8988 145.161 27.2663 146.482 27.0146C147.804 26.7629 149.171 26.9032 150.412 27.4179C151.653 27.9325 152.713 28.7986 153.459 29.9073C154.204 31.0161 154.602 32.318 154.602 33.6498C154.602 37.8178 151.562 40.4076 147.659 40.4076ZM147.659 36.9197C149.112 36.9197 150.469 35.8646 150.469 33.6498C150.469 31.4349 149.139 30.3798 147.711 30.3798C146.284 30.3798 144.953 31.4175 144.953 33.6498C144.953 35.882 146.187 36.9197 147.659 36.9197Z" fill="#222222"></path><path d="M160.841 40.2158H156.77V27.0837H160.841V29.2724C161.279 28.5681 161.89 27.9851 162.617 27.578C163.345 27.1708 164.164 26.9528 165 26.9442V31.1995H163.89C161.96 31.1995 160.841 31.8622 160.841 34.1206V40.2158Z" fill="#222222"></path><path d="M91.4924 49.8686H89.8006C89.5841 49.4593 89.2527 49.1205 88.8462 48.8931C88.4398 48.6657 87.9756 48.5594 87.5095 48.5868C86.7484 48.6675 86.0443 49.0237 85.5326 49.5871C85.021 50.1506 84.7379 50.8813 84.7379 51.6388C84.7379 52.3962 85.021 53.127 85.5326 53.6904C86.0443 54.2538 86.7484 54.6101 87.5095 54.6907C88.1836 54.7185 88.843 54.4901 89.3525 54.0524C89.862 53.6147 90.1831 53.0007 90.2499 52.3364H87.0248V51.2289H91.7568V52.3102C91.6212 53.3264 91.1142 54.2582 90.3317 54.9298C89.5492 55.6013 88.5452 55.966 87.5095 55.9551C86.8969 56.0159 86.2782 55.949 85.6933 55.7587C85.1084 55.5684 84.5703 55.2589 84.1137 54.8502C83.6571 54.4414 83.2922 53.9425 83.0424 53.3856C82.7926 52.8288 82.6636 52.2262 82.6636 51.617C82.6636 51.0077 82.7926 50.4052 83.0424 49.8483C83.2922 49.2914 83.6571 48.7925 84.1137 48.3838C84.5703 47.975 85.1084 47.6655 85.6933 47.4752C86.2782 47.2849 86.8969 47.218 87.5095 47.2788C88.3639 47.243 89.2081 47.4737 89.9228 47.9384C90.6375 48.4032 91.1866 49.0783 91.4924 49.8686Z" fill="#222222"></path><path d="M97.3258 47.462C99.3613 47.462 100.366 48.6217 100.366 49.9994C100.378 50.5725 100.185 51.1313 99.8202 51.5767C99.4556 52.0221 98.9434 52.3252 98.3744 52.4323L100.498 55.9202H98.8238L96.8499 52.5282H95.7661V55.9202H94.3562V47.462H97.3258ZM97.3258 48.5956H95.7661V51.4382H97.317C98.4184 51.4382 98.9119 50.8453 98.9119 49.9994C98.9119 49.1536 98.4096 48.5607 97.3258 48.5607V48.5956Z" fill="#222222"></path><path d="M107.31 55.9987C106.438 55.9987 105.586 55.743 104.862 55.2639C104.137 54.7848 103.572 54.1039 103.239 53.3072C102.906 52.5106 102.818 51.6339 102.988 50.7882C103.158 49.9425 103.578 49.1656 104.194 48.5559C104.81 47.9461 105.595 47.5309 106.45 47.3626C107.305 47.1944 108.191 47.2808 108.996 47.6108C109.801 47.9407 110.489 48.4996 110.973 49.2165C111.457 49.9335 111.715 50.7765 111.715 51.6388C111.73 52.2152 111.626 52.7886 111.41 53.3241C111.193 53.8596 110.869 54.3459 110.457 54.7537C110.045 55.1614 109.554 55.482 109.013 55.6961C108.471 55.9101 107.892 56.013 107.31 55.9987ZM107.31 54.7866C107.942 54.8303 108.574 54.6848 109.122 54.3688C109.67 54.0529 110.11 53.5812 110.383 53.0149C110.657 52.4486 110.753 51.814 110.657 51.1934C110.562 50.5728 110.28 49.9949 109.849 49.5347C109.417 49.0745 108.856 48.7533 108.238 48.6128C107.62 48.4723 106.973 48.519 106.382 48.7468C105.791 48.9746 105.282 49.373 104.923 49.8903C104.564 50.4075 104.37 51.0198 104.366 51.6475C104.329 52.0497 104.378 52.4552 104.51 52.8376C104.641 53.2199 104.853 53.5705 105.13 53.8666C105.408 54.1627 105.746 54.3977 106.121 54.5562C106.496 54.7147 106.901 54.7932 107.31 54.7866Z" fill="#222222"></path><path d="M121.32 47.4096V55.9115H119.919L115.681 49.5722V55.9115H114.271V47.4096H115.681L119.919 53.7402V47.4096H121.32Z" fill="#222222"></path><path d="M124.431 47.462H125.832V55.9464H124.431V47.462Z" fill="#222222"></path><path d="M135.965 47.4096V55.9115H134.538L130.308 49.5722V55.9115H128.898V47.4096H130.308L134.538 53.7402V47.4096H135.965Z" fill="#222222"></path><path d="M146.945 49.8686H145.253C145.035 49.46 144.704 49.1218 144.298 48.8946C143.891 48.6673 143.428 48.5604 142.962 48.5868C142.201 48.6675 141.497 49.0237 140.985 49.5871C140.473 50.1506 140.19 50.8813 140.19 51.6388C140.19 52.3962 140.473 53.127 140.985 53.6904C141.497 54.2538 142.201 54.6101 142.962 54.6907C143.636 54.7185 144.295 54.4901 144.805 54.0524C145.314 53.6147 145.635 53.0007 145.702 52.3364H142.468V51.2289H147.2V52.3102C147.065 53.3264 146.558 54.2582 145.775 54.9298C144.993 55.6013 143.989 55.966 142.953 55.9551C142.34 56.0159 141.722 55.949 141.137 55.7587C140.552 55.5684 140.014 55.2589 139.557 54.8502C139.101 54.4414 138.736 53.9425 138.486 53.3856C138.236 52.8288 138.107 52.2262 138.107 51.617C138.107 51.0077 138.236 50.4052 138.486 49.8483C138.736 49.2914 139.101 48.7925 139.557 48.3838C140.014 47.975 140.552 47.6655 141.137 47.4752C141.722 47.2849 142.34 47.218 142.953 47.2788C143.809 47.2411 144.655 47.471 145.371 47.9358C146.088 48.4007 146.638 49.0769 146.945 49.8686Z" fill="#222222"></path><path d="M154.558 48.5519H151.227V51.0371H154.188V52.1794H151.227V54.7954H154.558V55.9289H149.817V47.4271H154.558V48.5519Z" fill="#222222"></path><path d="M164.559 47.4096V55.9115H163.158L158.92 49.5722V55.9115H157.51V47.4096H158.92L163.158 53.7402V47.4096H164.559Z" fill="#222222"></path></svg>